# xmcd CD database file
#
# Track frame offsets:
#	150
#	34807
#	60807
#	88580
#	117085
#	132250
#	159232
#	178902
#	203335
#	232735
#	255275
#	281185
#
# Disc length: 4049 seconds
#
# Revision: 0
# Processed by: cddbd v1.4PL0 Copyright (c) Steve Scherf et al.
# Submitted via: CDex 1.50beta10
#
DISCID=8f0fcf0c
DTITLE=David Lahm - More Jazz Takes On Joni
DYEAR=2000
DGENRE=Jazz
TTITLE0=Woodstock
TTITLE1=Don Juan's Reckless Daughter
TTITLE2=San Diego Holiday
TTITLE3=Off Night Back Street
TTITLE4=Walk This Way
TTITLE5=The Silky Veils of Ardor
TTITLE6=In France, They Kiss On Main Street
TTITLE7=Ladies of the Canyon
TTITLE8=Black Crow
TTITLE9=Wayne Swirled
TTITLE10=Vibeca
TTITLE11=Woodstock (radio version)
EXTD=YEAR: 2000
EXTT0=
EXTT1=
EXTT2=
EXTT3=
EXTT4=
EXTT5=
EXTT6=
EXTT7=
EXTT8=
EXTT9=
EXTT10=
EXTT11=
PLAYORDER=
